<?xml version="1.0" encoding="UTF-8"?><svg id="Layer_3" xmlns="http://www.w3.org/2000/svg" viewBox="0 0 340.44 375.44"><defs><style>.cls-1{fill:#dfa166;}.cls-2{fill:#fff;}.cls-3{stroke:#e6be99;}.cls-3,.cls-4{stroke-width:5px;}.cls-3,.cls-4,.cls-5{fill:none;stroke-miterlimit:10;}.cls-4,.cls-5{stroke:#fff;}.cls-6{fill:#644c85;}.cls-5{stroke-width:3px;}.cls-7{fill:#c74d58;}.cls-8{fill:#ba3e6b;}.cls-9{fill:#e6be99;}.cls-10{fill:#cc9b70;}.cls-11{fill:#8c2b86;}</style></defs><circle class="cls-1" cx="168.78" cy="72.29" r="12.22"/><polygon class="cls-9" points="149.78 149.13 165.78 96.91 149.78 110.91 134.78 96.91 149.78 149.13"/><line class="cls-3" x1="149.78" y1="110.91" x2="150.28" y2="20.89"/><polygon class="cls-7" points="207.03 289.13 207.7 340.69 261.7 340.13 260.2 289.13 207.03 289.13"/><rect class="cls-8" x="156.44" y="289.13" width="51.25" height="51"/><polygon class="cls-6" points="206.15 88.02 206.15 180.63 315.35 180.63 316.35 88.02 206.15 88.02"/><rect class="cls-11" x="43.11" y="110.02" width="63.56" height="30.44"/><rect class="cls-10" x="34.44" y="167.15" width="111.11" height="57.76"/><line class="cls-5" x1="230.45" y1="350.12" x2="233.45" y2="330.44"/><polyline class="cls-4" points="137.36 20.79 131.03 104.46 19.2 94.46 20.03 245.96 18.53 245.96 18.53 288.13 17.03 288.13 17.86 337.79 72.7 337.79 72.7 348.29 156.7 347.29 156.7 340.13 317.36 339.29 314.03 287.63 315.36 179.79 316.36 87.13 205.53 86.96 206.86 17.96"/><line class="cls-4" x1="142.86" y1="89.63" x2="132.15" y2="89.63"/><line class="cls-4" x1="142.86" y1="54.96" x2="134.78" y2="54.96"/><line class="cls-4" x1="157.2" y1="54.96" x2="206.15" y2="54.96"/><polyline class="cls-4" points="157.2 89.63 205.53 89.63 206.15 156.13"/><polyline class="cls-4" points="206.15 168.96 206.86 246.79 170.7 246.79"/><line class="cls-4" x1="157.2" y1="246.79" x2="20.03" y2="245.96"/><line class="cls-4" x1="18.53" y1="288.13" x2="163.86" y2="288.13"/><line class="cls-4" x1="72.7" y1="337.79" x2="72.7" y2="288.13"/><line class="cls-4" x1="156.7" y1="340.13" x2="156.7" y2="288.13"/><line class="cls-4" x1="170.7" y1="288.13" x2="188.03" y2="288.13"/><line class="cls-4" x1="194.86" y1="288.13" x2="219.2" y2="288.13"/><line class="cls-4" x1="224.7" y1="288.13" x2="248.36" y2="288.13"/><line class="cls-4" x1="254.86" y1="288.13" x2="314.03" y2="287.63"/><line class="cls-4" x1="260.2" y1="287.88" x2="261.7" y2="339.58"/><line class="cls-4" x1="207.7" y1="288.13" x2="207.7" y2="313.73"/><line class="cls-4" x1="207.7" y1="320.79" x2="207.7" y2="339.86"/><polyline class="cls-4" points="206.25 179.63 260.8 180.13 315.35 180.63"/><polyline class="cls-4" points="314.35 261.79 260.8 261.79 260.8 180.13"/><line class="cls-5" x1="64" y1="78.85" x2="74.89" y2="125.24"/><line class="cls-5" x1="199.11" y1="350.33" x2="182.07" y2="330.33"/><line class="cls-5" x1="273.33" y1="57.78" x2="261.25" y2="112.67"/><path class="cls-2" d="m147.13,12.73v1.69h-7.05V5.32h6.88v1.69h-4.78v1.98h4.23v1.64h-4.23v2.11h4.95Z"/><path class="cls-2" d="m155.81,10.42v4h-2.03v-3.69c0-1.13-.52-1.65-1.42-1.65-.98,0-1.68.6-1.68,1.88v3.46h-2.03v-6.99h1.94v.82c.55-.6,1.37-.92,2.31-.92,1.65,0,2.9.96,2.9,3.09Z"/><path class="cls-2" d="m162.16,14.09c-.42.3-1.03.44-1.65.44-1.65,0-2.61-.84-2.61-2.51v-2.87h-1.08v-1.56h1.08v-1.7h2.03v1.7h1.74v1.56h-1.74v2.85c0,.6.33.92.87.92.3,0,.6-.09.82-.26l.55,1.43Z"/><path class="cls-2" d="m167.64,7.32v1.87c-.17-.01-.3-.03-.46-.03-1.12,0-1.86.61-1.86,1.95v3.3h-2.03v-6.99h1.94v.92c.49-.68,1.33-1.03,2.4-1.03Z"/><path class="cls-2" d="m175,10.43v3.99h-1.9v-.87c-.38.64-1.11.97-2.13.97-1.64,0-2.61-.91-2.61-2.12s.87-2.09,3-2.09h1.61c0-.87-.52-1.38-1.61-1.38-.74,0-1.51.25-2.02.65l-.73-1.42c.77-.55,1.9-.85,3.02-.85,2.13,0,3.37.99,3.37,3.11Zm-2.03,1.78v-.71h-1.39c-.95,0-1.25.35-1.25.82,0,.51.43.85,1.14.85.68,0,1.26-.31,1.5-.95Z"/><path class="cls-2" d="m183.98,10.42v4h-2.03v-3.69c0-1.13-.52-1.65-1.42-1.65-.98,0-1.68.6-1.68,1.88v3.46h-2.03v-6.99h1.94v.82c.55-.6,1.37-.92,2.31-.92,1.65,0,2.9.96,2.9,3.09Z"/><path class="cls-2" d="m185.37,10.93c0-2.11,1.62-3.6,3.9-3.6,1.47,0,2.63.64,3.13,1.78l-1.57.84c-.38-.66-.94-.96-1.57-.96-1.03,0-1.83.72-1.83,1.94s.81,1.94,1.83,1.94c.64,0,1.2-.29,1.57-.96l1.57.86c-.51,1.12-1.66,1.77-3.13,1.77-2.28,0-3.9-1.49-3.9-3.6Z"/><path class="cls-2" d="m200.3,11.5h-5.29c.2.87.94,1.4,2,1.4.74,0,1.27-.22,1.75-.68l1.08,1.17c-.65.74-1.62,1.13-2.89,1.13-2.42,0-3.99-1.52-3.99-3.6s1.6-3.6,3.73-3.6,3.64,1.38,3.64,3.63c0,.16-.03.38-.04.55Zm-5.32-1.18h3.45c-.14-.88-.81-1.46-1.72-1.46s-1.59.56-1.73,1.46Z"/><path class="cls-2" d="m227.62,29.88c0,2.03-1.52,3.29-3.95,3.29h-1.83v2.51h-2.11v-9.1h3.94c2.43,0,3.95,1.26,3.95,3.3Zm-2.13,0c0-1-.65-1.59-1.94-1.59h-1.72v3.16h1.72c1.29,0,1.94-.58,1.94-1.57Z"/><path class="cls-2" d="m229.1,26.03h2.03v9.65h-2.03v-9.65Z"/><path class="cls-2" d="m239.83,32.75h-5.29c.2.87.94,1.4,2,1.4.74,0,1.27-.22,1.76-.68l1.08,1.17c-.65.74-1.62,1.13-2.89,1.13-2.42,0-3.99-1.52-3.99-3.6s1.6-3.6,3.73-3.6,3.64,1.38,3.64,3.63c0,.16-.03.38-.04.55Zm-5.32-1.18h3.44c-.14-.88-.81-1.46-1.72-1.46s-1.59.56-1.73,1.46Z"/><path class="cls-2" d="m248.37,31.67v4h-2.03v-3.69c0-1.13-.52-1.65-1.42-1.65-.98,0-1.68.6-1.68,1.88v3.46h-2.03v-6.99h1.94v.82c.55-.6,1.37-.92,2.31-.92,1.65,0,2.9.96,2.9,3.09Z"/><path class="cls-2" d="m256.39,31.68v3.99h-1.9v-.87c-.38.64-1.11.97-2.13.97-1.64,0-2.61-.91-2.61-2.12s.87-2.09,3-2.09h1.61c0-.87-.52-1.38-1.61-1.38-.74,0-1.51.25-2.02.65l-.73-1.42c.77-.55,1.9-.85,3.02-.85,2.13,0,3.37.99,3.37,3.11Zm-2.03,1.78v-.71h-1.39c-.95,0-1.25.35-1.25.82,0,.51.43.85,1.14.85.68,0,1.26-.31,1.5-.95Z"/><path class="cls-2" d="m262.56,28.57v1.87c-.17-.01-.3-.03-.46-.03-1.12,0-1.86.61-1.86,1.95v3.3h-2.03v-6.99h1.94v.92c.49-.68,1.33-1.03,2.41-1.03Z"/><path class="cls-2" d="m270.96,28.68l-3.16,7.42c-.68,1.69-1.64,2.2-2.9,2.2-.71,0-1.5-.23-1.95-.64l.74-1.44c.31.27.74.44,1.14.44.56,0,.87-.25,1.14-.87l.03-.07-3.03-7.05h2.09l1.96,4.75,1.98-4.75h1.95Z"/><path class="cls-2" d="m275.62,26.57h2.11v7.38h4.56v1.72h-6.67v-9.1Z"/><path class="cls-2" d="m290.08,32.75h-5.29c.2.87.94,1.4,2,1.4.74,0,1.27-.22,1.75-.68l1.08,1.17c-.65.74-1.62,1.13-2.89,1.13-2.42,0-3.99-1.52-3.99-3.6s1.6-3.6,3.73-3.6,3.64,1.38,3.64,3.63c0,.16-.03.38-.04.55Zm-5.32-1.18h3.45c-.14-.88-.81-1.46-1.72-1.46s-1.59.56-1.73,1.46Z"/><path class="cls-2" d="m290.95,32.18c0-2.11,1.62-3.6,3.9-3.6,1.47,0,2.63.64,3.13,1.78l-1.57.84c-.38-.66-.94-.96-1.57-.96-1.03,0-1.83.72-1.83,1.94s.81,1.94,1.83,1.94c.64,0,1.2-.29,1.57-.96l1.57.86c-.51,1.12-1.66,1.77-3.13,1.77-2.28,0-3.9-1.49-3.9-3.6Z"/><path class="cls-2" d="m303.77,35.34c-.42.3-1.03.44-1.65.44-1.65,0-2.61-.84-2.61-2.51v-2.87h-1.08v-1.56h1.08v-1.7h2.03v1.7h1.74v1.56h-1.74v2.85c0,.6.33.92.87.92.3,0,.6-.09.82-.26l.55,1.43Z"/><path class="cls-2" d="m311.96,28.68v6.99h-1.92v-.83c-.53.61-1.31.94-2.17.94-1.75,0-2.99-.99-2.99-3.15v-3.95h2.03v3.65c0,1.17.52,1.69,1.42,1.69s1.61-.6,1.61-1.88v-3.46h2.03Z"/><path class="cls-2" d="m318.19,28.57v1.87c-.17-.01-.3-.03-.46-.03-1.12,0-1.86.61-1.86,1.95v3.3h-2.03v-6.99h1.94v.92c.49-.68,1.33-1.03,2.41-1.03Z"/><path class="cls-2" d="m326.14,32.75h-5.29c.2.87.94,1.4,2,1.4.74,0,1.27-.22,1.75-.68l1.08,1.17c-.65.74-1.62,1.13-2.89,1.13-2.42,0-3.99-1.52-3.99-3.6s1.6-3.6,3.73-3.6,3.64,1.38,3.64,3.63c0,.16-.03.38-.04.55Zm-5.32-1.18h3.45c-.14-.88-.81-1.46-1.72-1.46s-1.59.56-1.73,1.46Z"/><path class="cls-2" d="m259.39,51.27l-1.75-2.54h-1.94v2.54h-2.11v-9.1h3.94c2.43,0,3.95,1.26,3.95,3.3,0,1.36-.69,2.37-1.87,2.87l2.04,2.92h-2.26Zm-1.98-7.38h-1.72v3.17h1.72c1.29,0,1.94-.6,1.94-1.59s-.65-1.59-1.94-1.59Z"/><path class="cls-2" d="m262.49,47.78c0-2.11,1.62-3.6,3.85-3.6s3.84,1.5,3.84,3.6-1.61,3.6-3.84,3.6-3.85-1.5-3.85-3.6Zm5.63,0c0-1.21-.77-1.94-1.78-1.94s-1.79.73-1.79,1.94.78,1.94,1.79,1.94,1.78-.73,1.78-1.94Z"/><path class="cls-2" d="m271,47.78c0-2.11,1.62-3.6,3.85-3.6s3.83,1.5,3.83,3.6-1.61,3.6-3.83,3.6-3.85-1.5-3.85-3.6Zm5.63,0c0-1.21-.77-1.94-1.78-1.94s-1.79.73-1.79,1.94.78,1.94,1.79,1.94,1.78-.73,1.78-1.94Z"/><path class="cls-2" d="m291.85,47.27v4h-2.03v-3.69c0-1.13-.51-1.65-1.33-1.65-.91,0-1.55.58-1.55,1.83v3.51h-2.03v-3.69c0-1.13-.48-1.65-1.33-1.65-.9,0-1.53.58-1.53,1.83v3.51h-2.03v-6.99h1.94v.81c.52-.6,1.3-.91,2.2-.91.97,0,1.81.38,2.3,1.14.56-.71,1.47-1.14,2.52-1.14,1.66,0,2.86.96,2.86,3.09Z"/><path class="cls-2" d="m200.13,360.12c0,2.03-1.52,3.29-3.95,3.29h-1.83v2.51h-2.11v-9.1h3.94c2.43,0,3.95,1.26,3.95,3.3Zm-2.13,0c0-1-.65-1.59-1.94-1.59h-1.72v3.16h1.72c1.29,0,1.94-.58,1.94-1.57Z"/><path class="cls-2" d="m200.95,362.42c0-2.11,1.62-3.6,3.85-3.6s3.83,1.5,3.83,3.6-1.61,3.6-3.83,3.6-3.85-1.49-3.85-3.6Zm5.63,0c0-1.21-.77-1.94-1.78-1.94s-1.79.73-1.79,1.94.78,1.94,1.79,1.94,1.78-.73,1.78-1.94Z"/><path class="cls-2" d="m209.31,365.27l.68-1.46c.62.4,1.57.68,2.43.68.94,0,1.29-.25,1.29-.64,0-1.14-4.22.03-4.22-2.77,0-1.33,1.2-2.26,3.24-2.26.96,0,2.03.22,2.69.61l-.68,1.44c-.69-.39-1.38-.52-2.02-.52-.91,0-1.3.29-1.3.65,0,1.2,4.22.04,4.22,2.79,0,1.3-1.21,2.22-3.3,2.22-1.18,0-2.38-.32-3.03-.75Z"/><path class="cls-2" d="m221.4,365.58c-.42.3-1.03.44-1.65.44-1.65,0-2.61-.84-2.61-2.51v-2.87h-1.08v-1.56h1.08v-1.7h2.03v1.7h1.74v1.56h-1.74v2.85c0,.6.33.92.87.92.3,0,.6-.09.82-.26l.55,1.43Z"/><path class="cls-2" d="m229.13,362.99h-5.29c.2.87.94,1.4,2,1.4.74,0,1.27-.22,1.75-.68l1.08,1.17c-.65.74-1.62,1.13-2.89,1.13-2.42,0-3.99-1.52-3.99-3.6s1.6-3.6,3.73-3.6,3.64,1.38,3.64,3.63c0,.16-.03.38-.04.55Zm-5.32-1.18h3.45c-.14-.88-.81-1.46-1.72-1.46s-1.59.56-1.73,1.46Z"/><path class="cls-2" d="m234.87,358.82v1.87c-.17-.01-.3-.03-.46-.03-1.12,0-1.86.61-1.86,1.95v3.3h-2.03v-6.99h1.94v.92c.49-.68,1.33-1.03,2.41-1.03Z"/><path class="cls-2" d="m246.99,364.23v1.69h-7.05v-9.1h6.88v1.69h-4.78v1.98h4.23v1.64h-4.23v2.11h4.95Z"/><path class="cls-2" d="m252.88,365.92l-1.53-2.15-1.59,2.15h-2.21l2.69-3.52-2.6-3.47h2.28l1.48,2.04,1.52-2.04h2.16l-2.6,3.42,2.7,3.58h-2.3Z"/><path class="cls-2" d="m263.32,361.92v4h-2.03v-3.69c0-1.13-.52-1.65-1.42-1.65-.98,0-1.68.6-1.68,1.88v3.46h-2.03v-9.65h2.03v3.38c.55-.55,1.33-.83,2.22-.83,1.65,0,2.9.96,2.9,3.09Z"/><path class="cls-2" d="m264.91,356.82c0-.64.51-1.13,1.26-1.13s1.26.47,1.26,1.09c0,.68-.51,1.17-1.26,1.17s-1.26-.49-1.26-1.13Zm.25,2.11h2.03v6.99h-2.03v-6.99Z"/><path class="cls-2" d="m276.69,362.42c0,2.2-1.52,3.6-3.48,3.6-.94,0-1.69-.3-2.2-.91v.81h-1.94v-9.65h2.03v3.39c.52-.57,1.24-.85,2.11-.85,1.96,0,3.48,1.4,3.48,3.6Zm-2.05,0c0-1.21-.77-1.94-1.78-1.94s-1.78.73-1.78,1.94.77,1.94,1.78,1.94,1.78-.73,1.78-1.94Z"/><path class="cls-2" d="m277.79,356.82c0-.64.51-1.13,1.26-1.13s1.26.47,1.26,1.09c0,.68-.51,1.17-1.26,1.17s-1.26-.49-1.26-1.13Zm.25,2.11h2.03v6.99h-2.03v-6.99Z"/><path class="cls-2" d="m286.46,365.58c-.42.3-1.03.44-1.65.44-1.65,0-2.61-.84-2.61-2.51v-2.87h-1.08v-1.56h1.08v-1.7h2.03v1.7h1.74v1.56h-1.74v2.85c0,.6.33.92.87.92.3,0,.6-.09.82-.26l.55,1.43Z"/><path class="cls-2" d="m287.36,356.82c0-.64.51-1.13,1.26-1.13s1.26.47,1.26,1.09c0,.68-.51,1.17-1.26,1.17s-1.26-.49-1.26-1.13Zm.25,2.11h2.03v6.99h-2.03v-6.99Z"/><path class="cls-2" d="m291,362.42c0-2.11,1.62-3.6,3.85-3.6s3.83,1.5,3.83,3.6-1.61,3.6-3.83,3.6-3.85-1.49-3.85-3.6Zm5.63,0c0-1.21-.77-1.94-1.78-1.94s-1.79.73-1.79,1.94.78,1.94,1.79,1.94,1.78-.73,1.78-1.94Z"/><path class="cls-2" d="m307.18,361.92v4h-2.03v-3.69c0-1.13-.52-1.65-1.42-1.65-.98,0-1.68.6-1.68,1.88v3.46h-2.03v-6.99h1.94v.82c.55-.6,1.37-.92,2.31-.92,1.65,0,2.9.96,2.9,3.09Z"/><path class="cls-2" d="m308.34,365.27l.68-1.46c.62.4,1.57.68,2.43.68.94,0,1.29-.25,1.29-.64,0-1.14-4.23.03-4.23-2.77,0-1.33,1.2-2.26,3.24-2.26.96,0,2.03.22,2.69.61l-.68,1.44c-.69-.39-1.38-.52-2.02-.52-.91,0-1.3.29-1.3.65,0,1.2,4.22.04,4.22,2.79,0,1.3-1.21,2.22-3.3,2.22-1.18,0-2.38-.32-3.03-.75Z"/><path class="cls-2" d="m35.62,70.84c0-2.74,2.11-4.71,4.94-4.71,1.57,0,2.89.57,3.74,1.61l-1.35,1.25c-.61-.7-1.38-1.07-2.29-1.07-1.7,0-2.91,1.2-2.91,2.91s1.21,2.91,2.91,2.91c.91,0,1.68-.36,2.29-1.08l1.35,1.25c-.86,1.05-2.17,1.62-3.76,1.62-2.82,0-4.93-1.96-4.93-4.71Z"/><path class="cls-2" d="m51.71,71.39v3.99h-1.9v-.87c-.38.64-1.1.98-2.13.98-1.64,0-2.61-.91-2.61-2.12s.87-2.09,3-2.09h1.61c0-.87-.52-1.38-1.61-1.38-.74,0-1.51.25-2.01.65l-.73-1.42c.77-.55,1.9-.85,3.02-.85,2.13,0,3.37.99,3.37,3.11Zm-2.03,1.78v-.71h-1.39c-.95,0-1.25.35-1.25.82,0,.51.43.85,1.14.85.68,0,1.26-.31,1.5-.95Z"/><path class="cls-2" d="m55.77,68.55h1.79v1.56h-1.74v5.28h-2.03v-5.28h-1.08v-1.56h1.08v-.31c0-1.57.96-2.6,2.7-2.6.57,0,1.17.12,1.55.38l-.53,1.47c-.22-.16-.51-.25-.82-.25-.6,0-.92.33-.92,1.01v.3Z"/><path class="cls-2" d="m65.3,72.46h-5.29c.2.87.94,1.4,2,1.4.74,0,1.27-.22,1.75-.68l1.08,1.17c-.65.74-1.62,1.13-2.89,1.13-2.42,0-3.99-1.52-3.99-3.6s1.6-3.6,3.73-3.6,3.64,1.38,3.64,3.63c0,.16-.03.38-.04.55Zm-5.32-1.18h3.45c-.14-.88-.81-1.46-1.72-1.46s-1.59.56-1.73,1.46Z"/><path class="cls-2" d="m71.2,75.05c-.42.3-1.03.44-1.65.44-1.65,0-2.61-.85-2.61-2.51v-2.87h-1.08v-1.56h1.08v-1.7h2.03v1.7h1.74v1.56h-1.74v2.85c0,.6.33.92.87.92.3,0,.6-.09.82-.26l.55,1.43Z"/><path class="cls-2" d="m78.93,72.46h-5.29c.2.87.94,1.4,2,1.4.74,0,1.27-.22,1.75-.68l1.08,1.17c-.65.74-1.62,1.13-2.89,1.13-2.42,0-3.99-1.52-3.99-3.6s1.6-3.6,3.73-3.6,3.64,1.38,3.64,3.63c0,.16-.03.38-.04.55Zm-5.32-1.18h3.45c-.14-.88-.81-1.46-1.72-1.46s-1.59.56-1.73,1.46Z"/><path class="cls-2" d="m84.67,68.29v1.87c-.17-.01-.3-.03-.46-.03-1.12,0-1.86.61-1.86,1.95v3.3h-2.03v-6.99h1.94v.92c.49-.68,1.33-1.03,2.41-1.03Z"/><path class="cls-2" d="m85.63,66.28c0-.64.51-1.13,1.26-1.13s1.26.47,1.26,1.09c0,.68-.51,1.17-1.26,1.17s-1.26-.49-1.26-1.13Zm.25,2.11h2.03v6.99h-2.03v-6.99Z"/><path class="cls-2" d="m95.98,71.39v3.99h-1.9v-.87c-.38.64-1.11.98-2.13.98-1.64,0-2.61-.91-2.61-2.12s.87-2.09,3-2.09h1.61c0-.87-.52-1.38-1.61-1.38-.74,0-1.51.25-2.02.65l-.73-1.42c.77-.55,1.9-.85,3.02-.85,2.13,0,3.37.99,3.37,3.11Zm-2.03,1.78v-.71h-1.39c-.95,0-1.25.35-1.25.82,0,.51.43.85,1.14.85.68,0,1.26-.31,1.49-.95Z"/><path class="cls-2" d="m62.9,191.31v2.52h6.13v3.74h-6.13v4.7h-4.96v-14.7h11.95v3.74h-6.99Z"/><path class="cls-2" d="m70.5,196.51c0-3.49,2.79-5.94,6.68-5.94s6.68,2.46,6.68,5.94-2.77,5.96-6.68,5.96-6.68-2.48-6.68-5.96Zm8.55,0c0-1.49-.82-2.25-1.87-2.25s-1.87.76-1.87,2.25.82,2.27,1.87,2.27,1.87-.78,1.87-2.27Z"/><path class="cls-2" d="m97.82,190.78l-4.72,11.72c-1.26,3.15-3.11,4.05-5.54,4.05-1.26,0-2.71-.4-3.49-1.03l1.57-3.25c.46.36,1.11.61,1.68.61s.92-.17,1.18-.46l-4.83-11.63h4.87l2.37,6.15,2.41-6.15h4.49Z"/><path class="cls-2" d="m110.4,197.63h-7.98c.34.88,1.13,1.34,2.31,1.34,1.05,0,1.64-.27,2.39-.84l2.48,2.5c-1.11,1.22-2.73,1.85-5.02,1.85-4.22,0-6.95-2.54-6.95-5.96s2.79-5.94,6.51-5.94c3.4,0,6.32,2.06,6.32,5.94,0,.34-.04.78-.06,1.11Zm-8.06-2.29h3.7c-.19-.97-.88-1.53-1.85-1.53s-1.66.57-1.85,1.53Z"/><path class="cls-2" d="m120.18,190.57v4.2c-.42-.06-.71-.08-1.05-.08-1.43,0-2.44.65-2.44,2.48v5.1h-4.75v-11.49h4.51v1.24c.84-.97,2.12-1.45,3.72-1.45Z"/><path class="cls-2" d="m230.6,143.54l1.6-3.61c1.39.82,3.23,1.34,4.85,1.34,1.41,0,1.91-.29,1.91-.8,0-1.85-8.12-.36-8.12-5.84,0-2.73,2.29-4.96,6.84-4.96,1.97,0,4.01.42,5.54,1.28l-1.49,3.59c-1.45-.74-2.81-1.09-4.09-1.09-1.45,0-1.91.42-1.91.92,0,1.76,8.13.29,8.13,5.71,0,2.69-2.29,4.96-6.84,4.96-2.46,0-4.93-.61-6.4-1.51Z"/><path class="cls-2" d="m251.03,137.36c0-4.87,2.77-7.68,6.66-7.68s6.66,2.81,6.66,7.68-2.77,7.68-6.66,7.68-6.66-2.81-6.66-7.68Zm8.34,0c0-2.83-.71-3.72-1.68-3.72s-1.68.88-1.68,3.72.71,3.72,1.68,3.72,1.68-.88,1.68-3.72Z"/><path class="cls-2" d="m265.57,137.36c0-4.87,2.77-7.68,6.66-7.68s6.66,2.81,6.66,7.68-2.77,7.68-6.66,7.68-6.66-2.81-6.66-7.68Zm8.33,0c0-2.83-.71-3.72-1.68-3.72s-1.68.88-1.68,3.72.71,3.72,1.68,3.72,1.68-.88,1.68-3.72Z"/><path class="cls-2" d="m291.67,140.01c0,2.52-2.02,5.04-6.72,5.04-2.02,0-4.22-.44-5.79-1.32l1.68-3.65c1.26.73,2.71,1.07,3.95,1.07,1.11,0,1.91-.38,1.91-1.13,0-.63-.48-1.01-1.74-1.01h-1.95v-3.04l2.16-2.21h-5.25v-3.74h10.96v3.04l-2.73,2.77c2.31.57,3.53,2.14,3.53,4.18Z"/><path class="cls-2" d="m169.08,318.8h-3.73l-.66,1.71h-3.36l4.29-9.81h3.25l4.29,9.81h-3.42l-.66-1.71Zm-.91-2.38l-.95-2.47-.95,2.47h1.9Z"/><path class="cls-2" d="m177.49,315.61c0-3.25,1.85-5.13,4.44-5.13s4.44,1.88,4.44,5.13-1.85,5.13-4.44,5.13-4.44-1.88-4.44-5.13Zm5.56,0c0-1.89-.48-2.48-1.12-2.48s-1.12.59-1.12,2.48.48,2.48,1.12,2.48,1.12-.59,1.12-2.48Z"/><path class="cls-2" d="m191.69,310.7v9.81h-3.31v-7.31h-1.68v-2.49h4.99Z"/><path class="cls-2" d="m201.34,315.3c0,3.43-2.2,5.44-5.43,5.44-1.16,0-2.3-.28-3.04-.77l1.19-2.31c.57.41,1.16.52,1.78.52,1.12,0,1.91-.58,2.13-1.67-.49.35-1.12.55-1.95.55-1.79,0-3.36-1.22-3.36-3.14,0-2.1,1.76-3.43,3.98-3.43,2.8,0,4.71,1.61,4.71,4.82Zm-3.47-1.54c0-.62-.42-.99-1.01-.99s-1.01.38-1.01.99.42,1.01,1.01,1.01,1.01-.39,1.01-1.01Z"/><path class="cls-2" d="m222.19,319.01h-3.73l-.66,1.71h-3.36l4.29-9.81h3.25l4.29,9.81h-3.42l-.66-1.71Zm-.91-2.38l-.95-2.47-.95,2.47h1.91Z"/><path class="cls-2" d="m230.6,315.81c0-3.25,1.85-5.13,4.44-5.13s4.44,1.88,4.44,5.13-1.85,5.13-4.44,5.13-4.44-1.88-4.44-5.13Zm5.56,0c0-1.89-.48-2.48-1.12-2.48s-1.12.59-1.12,2.48.48,2.48,1.12,2.48,1.12-.59,1.12-2.48Z"/><path class="cls-2" d="m244.8,310.91v9.81h-3.31v-7.31h-1.68v-2.49h4.99Z"/><path class="cls-2" d="m254.28,310.91v2.03l-3.26,7.77h-3.61l3.11-7.24h-1.89v1.43h-2.73v-3.99h8.39Z"/><path class="cls-2" d="m166.03,65.42c0-1.36,1.11-2.42,2.86-2.42s2.85.97,2.85,2.33c0,1.45-1.11,2.5-2.85,2.5s-2.86-1.05-2.86-2.42Zm.48,3.34h4.75v11.48h-4.75v-11.48Z"/></svg>